<?xml version="1.0" standalone="no"?><!DOCTYPE svg PUBLIC "-//W3C//DTD SVG 1.1//EN" "http://www.w3.org/Graphics/SVG/1.1/DTD/svg11.dtd"><svg t="1623203769734" class="icon" viewBox="0 0 1024 1024" version="1.1" xmlns="http://www.w3.org/2000/svg" p-id="2844" xmlns:xlink="http://www.w3.org/1999/xlink" width="200" height="200"><defs><style type="text/css"></style></defs><path d="M0 0h1024v1024H0z" fill="#FF733C" p-id="2845"></path><path d="M299.2384 192h426.112c22.8608 0 41.6768 18.048 42.624 40.9088l21.888 533.3504a42.6752 42.6752 0 0 1-42.624 44.416H277.3248a42.6752 42.6752 0 0 1-42.624-44.416l21.888-533.3504A42.6752 42.6752 0 0 1 299.264 192z m106.368 149.3248c0 70.7072 52.5312 128 117.3504 128 64.7936 0 117.3248-57.2928 117.3248-128h-33.536c0 50.5088-37.504 91.4432-83.7888 91.4432s-83.8144-40.96-83.8144-91.4432h-33.536z" fill="#FFFFFF" p-id="2846"></path></svg>